<svg xmlns="http://www.w3.org/2000/svg" xmlns:xlink="http://www.w3.org/1999/xlink" id="svg6" width="24" height="24" fill="#000" version="1.1" viewBox="0 0 24 24"><metadata id="metadata12"/><defs id="defs10"><linearGradient id="linearGradient5863"><stop id="stop5859" offset="0" style="stop-color:#000;stop-opacity:1"/><stop id="stop5861" offset="1" style="stop-color:#000;stop-opacity:0"/></linearGradient><linearGradient id="linearGradient5865" x1="5.017" x2="23.591" y1="5.498" y2="24.072" gradientUnits="userSpaceOnUse" xlink:href="#linearGradient5863"><stop id="stop5859" offset="0" style="stop-color:#000;stop-opacity:1"/><stop id="stop5861" offset="1" style="stop-color:#000;stop-opacity:0"/></linearGradient></defs><path id="path2" fill="none" d="M0 0h24v24H0z"/><path id="path5292" d="m 8.0175781,5.4980469 -3,3.0097656 2.1757813,2.1757815 -2.1757813,1.824218 3.0566407,3.056641 -3.0566407,2.943359 11.3466799,11.34668 13.172851,-9.76e-4 4.659877,-2.1755 -9.656128,-9.656371 -12.52328,-12.5235961 -1.939453,2.0605469 z" style="opacity:.15;fill:url(#linearGradient5865);fill-opacity:1;stroke:none;stroke-width:0;stroke-linecap:butt;stroke-linejoin:miter;stroke-miterlimit:4;stroke-dasharray:none;stroke-opacity:.34901961"/><path id="path4493" d="m 5.0174481,5.4984745 h 3 c 0,1.66 -1.34,3.01 -3,3.01 z" style="fill:#3f51b5;fill-opacity:1"/><path id="path4491" d="m 5.0174481,12.508475 v -2 c 2.76,0 4.9999989,-2.2500005 4.9999989,-5.0100005 h 2 c 0,3.87 -3.1299989,7.0100005 -6.9999989,7.0100005 z" style="fill:#3f51b5;fill-opacity:1"/><path id="path4" d="m 5.0174481,18.508475 3.5,-4.5 2.4999989,3.01 3.5,-4.51 4.5,6 z" style="fill-opacity:1;fill:#3f51b5"/></svg>